{"accessors" : [{"bufferView" : 0, "byteOffset" : 0, "componentType" : 5123, "count" : 2208, "type" : "SCALAR", "max" : [2087], "min" : [0]}, {"bufferView" : 1, "byteOffset" : 0, "componentType" : 5126, "count" : 2088, "type" : "VEC3", "max" : [26.899999618530273, 55, 7], "min" : [-22.597000122070312, -38.99700164794922, 0], "name" : "POSITION"}, {"bufferView" : 1, "byteOffset" : 12, "componentType" : 5126, "count" : 2088, "type" : "VEC3", "max" : [0.8661034107208252, 1.0000044107437134, 1.0000044107437134], "min" : [-0.8662739992141724, -1.0000044107437134, -1.0000044107437134], "name" : "NORMAL"}], "asset" : {"generator" : "Aspose.3D 23.9.0", "version" : "2.0"}, "buffers" : [{"uri" : "data:application/octet-stream;base64,", "byteLength" : 57416}], "bufferViews" : [{"buffer" : 0, "byteOffset" : 0, "byteLength" : 4416, "target" : 34963}, {"buffer" : 0, "byteOffset" : 4420, "byteLength" : 52992, "byteStride" : 24, "target" : 34962}], "meshes" : [{"primitives" : [{"attributes" : {"POSITION" : 1, "NORMAL" : 2}, "indices" : 0, "mode" : 4}], "name" : ""}], "nodes" : [{"mesh" : 0, "name" : ""}], "scene" : 0, "scenes" : [{"nodes" : [0]}]}